<svg xmlns="http://www.w3.org/2000/svg" viewBox="0 0 692.73 165.25"><g data-name="Layer 2"><path d="M217.67 43.44h28.59v94.8h14.6v-94.8h29.19v-14h-72.38v14zM369.2 24.93l-47.4 113.31h14.45l11.64-28.59h41.84L401 138.24h16.7L370.11 24.93zM353 97l16.15-39.67L384.76 97zm191.82-67.56H526l-44.54 46.5-1.8 2.71.3-5.42V29.44h-14.75v108.8h14.75V94.3l9.18-8.88 39.72 52.82h18.51l-47.55-62.15 45-46.65zm143.55 33.11a57.47 57.47 0 00-30-29.95 55.09 55.09 0 00-43 0 56.94 56.94 0 00-29.64 29.95 54 54 0 00-4.29 21.36 54.45 54.45 0 0016.25 39.51 55.67 55.67 0 0017.68 11.81 55.06 55.06 0 0021.6 4.21 54.35 54.35 0 0021.51-4.29 56.38 56.38 0 0017.76-11.88 55.8 55.8 0 0012-17.69 55.26 55.26 0 000-43zm-13.84 37.62a42 42 0 01-8.66 13.16 40.37 40.37 0 01-12.79 8.88 40.51 40.51 0 01-31.75 0 41.7 41.7 0 01-12.94-8.95 40.66 40.66 0 01-8.73-13.17 41.75 41.75 0 01-3.08-16.18 43.07 43.07 0 013-16A40.38 40.38 0 01621 45.54a39.83 39.83 0 0144.84 9 44 44 0 018.66 13.31 43.13 43.13 0 010 32.36zM102 82.41l-22 21.9L100.44 125a20.72 20.72 0 0015.5 6.9 21.9 21.9 0 003.58-.3 20.7 20.7 0 0016.88-16.74 21.42 21.42 0 00.3-5l-10.93.65a10.52 10.52 0 01-.15 2.49 9.8 9.8 0 01-7.93 7.86 9.92 9.92 0 01-9.17-3.19l-13-13.25 14.36-14.31 2.5-2.74a51.58 51.58 0 10-72.58 1.79l14.71 15.17-12.93 13.11-.19.19a10 10 0 01-9.17 3.19 9.82 9.82 0 01-7.94-7.82 10.52 10.52 0 01-.15-2.49l-10.92-.65a22 22 0 00.29 5 20.73 20.73 0 0016.89 16.74 21.8 21.8 0 003.58.3 20.74 20.74 0 0015.5-6.9l20.34-20.62-3.73-3.83-.79-.81-17.72-18.29-.2-.18a40.65 40.65 0 1157.05-1.48zm-57.52 65.27l-.2.21a19.07 19.07 0 01-33-9.09 20.19 20.19 0 01-.17-5.85l-10.9-1.3a31.33 31.33 0 00.27 9.06 29.8 29.8 0 0024.32 24.11 31.3 31.3 0 005.18.43 29.89 29.89 0 0022.38-10l14.74-14.94-7.79-7.68zM138.17 133a20.19 20.19 0 01-.17 5.85 19.07 19.07 0 01-33 9.09l-15-15.26-7.79 7.68 14.74 14.95a29.89 29.89 0 0022.38 10 31.39 31.39 0 005.18-.43 29.8 29.8 0 0024.32-24.11 31.33 31.33 0 00.27-9.06z" fill="#f0f2f5" data-name="logo full1"/></g></svg>