<svg xmlns="http://www.w3.org/2000/svg" viewBox="0 0 13.1 14.5"><defs><style>.cls-1{fill:#2b2d3f}</style></defs><g id="Layer_2" data-name="Layer 2"><g id="Layer_1-2" data-name="Layer 1"><path class="cls-1" d="M9 7.23L7 9.15 8.81 11a1.81 1.81 0 001.36.6h.32A1.83 1.83 0 0012 10.08a2.2 2.2 0 000-.44h-1a.82.82 0 010 .22.85.85 0 01-.69.69.87.87 0 01-.81-.28L8.38 9.16 9.64 7.9l.22-.24a4.52 4.52 0 10-6.37.16l1.29 1.33-1.13 1.15a.87.87 0 01-1.5-.41.81.81 0 010-.22h-1a2.2 2.2 0 000 .44 1.83 1.83 0 001.49 1.47h.31A1.81 1.81 0 004.34 11l1.79-1.84-.33-.34-.07-.07-1.56-1.6A3.53 3.53 0 013 4.53 3.57 3.57 0 119.16 7z"/><path class="cls-1" d="M3.9 13a1.73 1.73 0 01-1.55.54A1.68 1.68 0 011 12.18a1.76 1.76 0 010-.51l-1-.12a3.07 3.07 0 000 .8 2.6 2.6 0 002.14 2.11 2.28 2.28 0 00.45 0 2.59 2.59 0 002-.88l1.3-1.31-.69-.67zm8.22-1.33a1.75 1.75 0 010 .51 1.7 1.7 0 01-1.35 1.34A1.73 1.73 0 019.21 13l-1.32-1.36-.68.67 1.29 1.31a2.63 2.63 0 002 .88 2.28 2.28 0 00.45 0 2.6 2.6 0 002.13-2.11 2.7 2.7 0 000-.8z"/></g></g></svg>